<svg width="30" height="28" viewBox="0 0 30 28" fill="none" xmlns="http://www.w3.org/2000/svg">
<path d="M23.9084 13.6455C23.9084 13.373 23.786 13.1094 23.5694 12.916L17.3825 7.1416C17.1377 6.92188 16.8834 6.8252 16.6197 6.8252C16.0171 6.8252 15.5839 7.2207 15.5839 7.75684C15.5839 8.03809 15.7063 8.27539 15.8946 8.45117L18.0134 10.4551L20.7443 12.7842L18.5596 12.6611H7.14638C6.51545 12.6611 6.08228 13.0654 6.08228 13.6455C6.08228 14.2168 6.51545 14.6211 7.14638 14.6211H18.5596L20.7443 14.498L18.0134 16.8271L15.8946 18.8311C15.7063 19.0068 15.5839 19.2441 15.5839 19.5254C15.5839 20.0615 16.0171 20.457 16.6197 20.457C16.8834 20.457 17.1377 20.3604 17.3637 20.1582L23.5694 14.3662C23.786 14.1729 23.9084 13.9092 23.9084 13.6455Z" fill="#6F70C9"/>
</svg>
