<svg width="24" height="20" viewBox="0 0 24 20" fill="none" xmlns="http://www.w3.org/2000/svg">
<path d="M3.87819 20H20.11C22.668 20 24 18.8015 24 16.5115V3.4885C24 1.1985 22.668 0 20.11 0H3.87819C1.33202 0 0 1.1878 0 3.4885V16.5115C0 18.8015 1.33202 20 3.87819 20ZM3.8664 17.8705C2.88802 17.8705 2.34578 17.4104 2.34578 16.4687V6.62386C2.34578 5.68218 2.88802 5.22204 3.8664 5.22204H20.1218C21.1002 5.22204 21.6424 5.68218 21.6424 6.62386V16.4687C21.6424 17.4104 21.1002 17.8705 20.1218 17.8705H3.8664ZM9.72495 8.91386H10.4204C10.8448 8.91386 10.9862 8.79615 10.9862 8.42162V7.79026C10.9862 7.40503 10.8448 7.28732 10.4204 7.28732H9.72495C9.30059 7.28732 9.15914 7.40503 9.15914 7.79026V8.42162C9.15914 8.79615 9.30059 8.91386 9.72495 8.91386ZM13.5796 8.91386H14.275C14.6876 8.91386 14.8291 8.79615 14.8291 8.42162V7.79026C14.8291 7.40503 14.6876 7.28732 14.275 7.28732H13.5796C13.1552 7.28732 13.0138 7.40503 13.0138 7.79026V8.42162C13.0138 8.79615 13.1552 8.91386 13.5796 8.91386ZM17.4224 8.91386H18.1179C18.5422 8.91386 18.6837 8.79615 18.6837 8.42162V7.79026C18.6837 7.40503 18.5422 7.28732 18.1179 7.28732H17.4224C17.0098 7.28732 16.8684 7.40503 16.8684 7.79026V8.42162C16.8684 8.79615 17.0098 8.91386 17.4224 8.91386ZM5.88212 12.3596H6.56582C6.99018 12.3596 7.13163 12.2418 7.13163 11.8566V11.2253C7.13163 10.8507 6.99018 10.733 6.56582 10.733H5.88212C5.45776 10.733 5.31631 10.8507 5.31631 11.2253V11.8566C5.31631 12.2418 5.45776 12.3596 5.88212 12.3596ZM9.72495 12.3596H10.4204C10.8448 12.3596 10.9862 12.2418 10.9862 11.8566V11.2253C10.9862 10.8507 10.8448 10.733 10.4204 10.733H9.72495C9.30059 10.733 9.15914 10.8507 9.15914 11.2253V11.8566C9.15914 12.2418 9.30059 12.3596 9.72495 12.3596ZM13.5796 12.3596H14.275C14.6876 12.3596 14.8291 12.2418 14.8291 11.8566V11.2253C14.8291 10.8507 14.6876 10.733 14.275 10.733H13.5796C13.1552 10.733 13.0138 10.8507 13.0138 11.2253V11.8566C13.0138 12.2418 13.1552 12.3596 13.5796 12.3596ZM17.4224 12.3596H18.1179C18.5422 12.3596 18.6837 12.2418 18.6837 11.8566V11.2253C18.6837 10.8507 18.5422 10.733 18.1179 10.733H17.4224C17.0098 10.733 16.8684 10.8507 16.8684 11.2253V11.8566C16.8684 12.2418 17.0098 12.3596 17.4224 12.3596ZM5.88212 15.7945H6.56582C6.99018 15.7945 7.13163 15.6768 7.13163 15.3023V14.6709C7.13163 14.2857 6.99018 14.168 6.56582 14.168H5.88212C5.45776 14.168 5.31631 14.2857 5.31631 14.6709V15.3023C5.31631 15.6768 5.45776 15.7945 5.88212 15.7945ZM9.72495 15.7945H10.4204C10.8448 15.7945 10.9862 15.6768 10.9862 15.3023V14.6709C10.9862 14.2857 10.8448 14.168 10.4204 14.168H9.72495C9.30059 14.168 9.15914 14.2857 9.15914 14.6709V15.3023C9.15914 15.6768 9.30059 15.7945 9.72495 15.7945ZM13.5796 15.7945H14.275C14.6876 15.7945 14.8291 15.6768 14.8291 15.3023V14.6709C14.8291 14.2857 14.6876 14.168 14.275 14.168H13.5796C13.1552 14.168 13.0138 14.2857 13.0138 14.6709V15.3023C13.0138 15.6768 13.1552 15.7945 13.5796 15.7945Z" fill="#8C8DFD"/>
</svg>
